# xmcd
#
# Track frame offsets:
#	150
#	14494
#	30932
#	52037
#	66857
#	82588
#	101391
#	117410
#	131752
#	147555
#	165807
#	180976
#	198572
#	212992
#	229569
#	245200
#	261411
#	280766
#	293421
#	309228
#
# Disc length: 4418 seconds
#
# Revision: 1
# Processed by: cddbd v1.5.2PL0 Copyright (c) Steve Scherf et al.
# Submitted via: audiograbber 1.83.01
#
DISCID=16114014
DTITLE=Various Artist - Sounds Like Nashville CD2
DYEAR=2015
DGENRE=Country
TTITLE0=Luke Bryan - That's My Kind Of Night
TTITLE1=Maddie and Tae - Girl In A Country Song
TTITLE2=Dierks Bentley - I Hold On
TTITLE3=Lady Antebellum - Downtown
TTITLE4=Little Big Town - Pontoon
TTITLE5=Erich Church - Give Me Back My Hometown
TTITLE6=Cassadee Pope - Wasting All These Tears
TTITLE7=Sam Hunt - Leave The Night On
TTITLE8=Florida Georgia Line - Cruise
TTITLE9=Mickey Guyton - Better Than You Left Me
TTITLE10=Billy Cunningham - Hey Girl
TTITLE11=David Nail - Whatever She's Got
TTITLE12=Lucy Hale - You Sound Good To Me
TTITLE13=Eli Young Band - Even If It Breaks Your Heart
TTITLE14=Kevin Chase - Whole Lotta Honey
TTITLE15=Kip Moore - Hey Pretty Girl
TTITLE16=Krystal Keith - Daddy Dance With Me (Single Version)
TTITLE17=Eric Paisley - Friday Night
TTITLE18=Danielle Bradberry - The Heart Of Dixie
TTITLE19=Darius Rucker - Wagon Wheel
EXTD=
EXTT0=
EXTT1=
EXTT2=
EXTT3=
EXTT4=
EXTT5=
EXTT6=
EXTT7=
EXTT8=
EXTT9=
EXTT10=
EXTT11=
EXTT12=
EXTT13=
EXTT14=
EXTT15=
EXTT16=
EXTT17=
EXTT18=
EXTT19=
PLAYORDER=
